# xmcd
#
# Track frame offsets:
#	150
#	11717
#	24385
#	37830
#	51718
#	65214
#	77266
#	92036
#	103508
#	118442
#	132973
#	145660
#	157597
#	170214
#	185152
#	199199
#	213244
#	226315
#	237010
#	251137
#	264132
#	276929
#	291060
#	304311
#	318701
#
# Disc length: 4388
#
# Revision: 3
# Processed by: cddbd v1.5.1PL0 Copyright (c) Steve Scherf et al.
# Submitted via: EasyCDDAExtractor 6.2.0.3
# Normalized: r2:DSETVAR1
#
DISCID=6d112219
DTITLE=Various Artist - Chess Blues Disc 2 1952-1954
DYEAR=1900
DGENRE=Blues
TTITLE0=John Lee Hooker - Walkin' the Boogie (alternate)
TTITLE1=Little Walter - Juke
TTITLE2=Memphis Minnie - Conjur Man
TTITLE3=Muddy Waters - Who's Gonna Be Your Sweet Man When I'm Gone
TTITLE4=Memphis Minnie - Broken Heart (alternate)
TTITLE5=Willie Nix - Truckin' Little Woman
TTITLE6=Rocky Fuller - Funeral Hearse at My Door
TTITLE7=Eddie Boyd - Hard Time Gettin' Started
TTITLE8=Little Walter - Don't Need No Horse
TTITLE9=Gus Jenkins - Eight Ball
TTITLE10=Little Walter - Fast Boogie
TTITLE11=Willie Mabon - I'm Mad
TTITLE12=John Brim - Ice Cream Man
TTITLE13=Elmore James - Whose Muddy Shoes
TTITLE14=Willie Mabon - Got to Have It
TTITLE15=Henry Gray - I Declare That Ain't Right
TTITLE16=Alberta Adams - Remember
TTITLE17=Henry Gray and Morris Pejoe - Untitled Instrumental
TTITLE18=Little Walter - Blues with a Feeling
TTITLE19=Muddy Waters - Hoochie Coochie Man
TTITLE20=Howlin' Wolf - Forty Four
TTITLE21=Little Walter - Got to Find My Baby (alternate)
TTITLE22=Howlin' Wolf - Evil
TTITLE23=Lowell Fulson - Reconsider Baby
TTITLE24=J. B. Lenoir - Mama Talk to Your Daughter
EXTD=
EXTT0=
EXTT1=
EXTT2=
EXTT3=
EXTT4=
EXTT5=
EXTT6=
EXTT7=
EXTT8=
EXTT9=
EXTT10=
EXTT11=
EXTT12=
EXTT13=
EXTT14=
EXTT15=
EXTT16=
EXTT17=
EXTT18=
EXTT19=
EXTT20=
EXTT21=
EXTT22=
EXTT23=
EXTT24=
PLAYORDER=
